<svg width="411" height="894" viewBox="0 0 411 894" fill="none" xmlns="http://www.w3.org/2000/svg">
<defs>
<linearGradient id="paint0_linear_139_4" x1="128.763" y1="350.348" x2="-11.9435" y2="344.895" gradientUnits="userSpaceOnUse">
<stop stop-color="#F56273" stop-opacity="0.75"/>
<stop offset="1" stop-color="#4158D9"/>
</linearGradient>
<linearGradient id="paint1_linear_139_4" x1="322.117" y1="-17" x2="322.117" y2="191.28" gradientUnits="userSpaceOnUse">
<stop stop-color="#4158D9"/>
<stop offset="1" stop-color="#F56273" stop-opacity="0.75"/>
</linearGradient>
<linearGradient id="paint2_linear_139_4" x1="413.5" y1="253" x2="549" y2="362.635" gradientUnits="userSpaceOnUse">
<stop stop-color="#F56273" stop-opacity="0.75"/>
<stop offset="0.429339" stop-color="#F56273" stop-opacity="0.5"/>
</linearGradient>
<linearGradient id="paint3_linear_139_4" x1="307.715" y1="840.271" x2="317.022" y2="469.913" gradientUnits="userSpaceOnUse">
<stop stop-color="#4158D9"/>
<stop offset="1" stop-color="#F56273" stop-opacity="0.75"/>
</linearGradient>
</defs>
<g id="Group 33">
<g id="Mask group">
<mask id="mask0_139_4" style="mask-type:alpha" maskUnits="userSpaceOnUse" x="0" y="0" width="411" height="894">
<path id="Rectangle 55" d="M0 26.9397C0 12.0613 12.0007 0 26.8043 0H386.181C399.888 0 411 11.1679 411 24.9442V869.056C411 882.832 399.888 894 386.181 894H24.8188C11.1118 894 0 882.832 0 869.056V26.9397Z" fill="black"/>
</mask>
<g mask="url(#mask0_139_4)">
<rect id="Rectangle 96" x="-1" y="1" width="414" height="896" fill="black"/>
<path id="Polygon 1" d="M130.734 291.432C126.434 320.587 69.0355 350.587 80.7659 414.089C92.4963 477.591 -0.015109 553.565 -0.015109 553.565L-3.88708 137C-3.88708 137 141.593 217.797 130.734 291.432Z" fill="url(#paint0_linear_139_4)"/>
<path id="Ellipse 12" d="M413.234 165C413.234 221.057 371.291 170 315.234 170C259.178 170 234.734 159.057 234.734 103C234.734 82.2733 231.977 50 231.977 50C231.977 50 222.087 -17 265.234 -17C321.291 -17 413.234 108.943 413.234 165Z" fill="url(#paint1_linear_139_4)"/>
<path id="Ellipse 13" d="M494 331C494 374.078 457.959 409 413.5 409C369.041 409 333 374.078 333 331C333 287.922 369.041 253 413.5 253C457.959 253 494 287.922 494 331Z" fill="url(#paint2_linear_139_4)" fill-opacity="0.8"/>
<path id="Rectangle 54" d="M383.144 812.885C304.764 893.001 114.486 776.433 161.627 731.604C208.768 686.774 223.674 737.137 304.419 663.079C385.163 589.022 357.105 433.615 426.37 480.897C512.488 539.684 456.061 738.351 383.144 812.885Z" fill="url(#paint3_linear_139_4)"/>
</g>
</g>
</g>
</svg>
