<svg width="414" height="896" viewBox="0 0 414 896" fill="none" xmlns="http://www.w3.org/2000/svg">
<mask id="mask0_117_7" style="mask-type:alpha" maskUnits="userSpaceOnUse" x="0" y="0" width="414" height="896">
<path d="M0 27C0 12.0883 12.0883 0 27 0H389C402.807 0 414 11.1929 414 25V871C414 884.807 402.807 896 389 896H25C11.1929 896 0 884.807 0 871V27Z" fill="black"/>
</mask>
<g mask="url(#mask0_117_7)">
<path d="M129.734 282.432C125.434 311.587 68.0355 341.587 79.7659 405.089C91.4963 468.591 -1.01511 544.565 -1.01511 544.565L-4.88708 128C-4.88708 128 140.593 208.797 129.734 282.432Z" fill="url(#paint0_linear_117_7)"/>
<path d="M414.234 164C414.234 220.057 372.291 169 316.234 169C260.178 169 235.734 158.057 235.734 102C235.734 81.2733 232.977 49 232.977 49C232.977 49 223.087 -18 266.234 -18C322.291 -18 414.234 107.943 414.234 164Z" fill="url(#paint1_linear_117_7)"/>
<path d="M495 330C495 373.078 458.959 408 414.5 408C370.041 408 334 373.078 334 330C334 286.922 370.041 252 414.5 252C458.959 252 495 286.922 495 330Z" fill="url(#paint2_linear_117_7)" fill-opacity="0.8"/>
<path d="M384.144 811.884C305.764 892.001 115.486 775.433 162.627 730.603C209.768 685.774 224.674 736.137 305.419 662.079C386.163 588.022 358.105 432.615 427.37 479.897C513.488 538.684 457.061 737.351 384.144 811.884Z" fill="url(#paint3_linear_117_7)"/>
</g>
<defs>
<linearGradient id="paint0_linear_117_7" x1="127.763" y1="341.348" x2="-12.9435" y2="335.895" gradientUnits="userSpaceOnUse">
<stop stop-color="#F56273" stop-opacity="0.75"/>
<stop offset="1" stop-color="#4158D9"/>
</linearGradient>
<linearGradient id="paint1_linear_117_7" x1="323.117" y1="-18" x2="323.117" y2="190.28" gradientUnits="userSpaceOnUse">
<stop stop-color="#4158D9"/>
<stop offset="1" stop-color="#F56273" stop-opacity="0.75"/>
</linearGradient>
<linearGradient id="paint2_linear_117_7" x1="414.5" y1="252" x2="550" y2="361.635" gradientUnits="userSpaceOnUse">
<stop stop-color="#F56273" stop-opacity="0.75"/>
<stop offset="0.429339" stop-color="#F56273" stop-opacity="0.5"/>
</linearGradient>
<linearGradient id="paint3_linear_117_7" x1="308.715" y1="839.271" x2="318.022" y2="468.913" gradientUnits="userSpaceOnUse">
<stop stop-color="#4158D9"/>
<stop offset="1" stop-color="#F56273" stop-opacity="0.75"/>
</linearGradient>
</defs>
</svg>
