<svg width="414" height="896" fill="none" xmlns="http://www.w3.org/2000/svg"><mask id="a" style="mask-type:alpha" maskUnits="userSpaceOnUse" x="0" y="0" width="414" height="896"><path d="M0 27C0 12.088 12.088 0 27 0h362c13.807 0 25 11.193 25 25v846c0 13.807-11.193 25-25 25H25c-13.807 0-25-11.193-25-25V27z" fill="#000"/></mask><g mask="url(#a)"><path d="M129.734 282.432c-4.3 29.155-61.699 59.155-49.968 122.657 11.73 63.502-80.781 139.476-80.781 139.476L-4.887 128s145.48 80.797 134.621 154.432z" fill="url(#b)"/><path d="M414.234 164c0 56.057-41.943 5-98 5-56.056 0-80.5-10.943-80.5-67 0-20.727-2.757-53-2.757-53s-9.89-67 33.257-67c56.057 0 148 125.943 148 182z" fill="url(#c)"/><path d="M495 330c0 43.078-36.041 78-80.5 78S334 373.078 334 330s36.041-78 80.5-78 80.5 34.922 80.5 78z" fill="url(#d)" fill-opacity=".8"/><path d="M384.144 811.884c-78.38 80.117-268.658-36.451-221.517-81.281 47.141-44.829 62.047 5.534 142.792-68.524 80.744-74.057 52.686-229.464 121.951-182.182 86.118 58.787 29.691 257.454-43.226 331.987z" fill="url(#e)"/></g><defs><linearGradient id="b" x1="127.763" y1="341.348" x2="-12.944" y2="335.895" gradientUnits="userSpaceOnUse"><stop stop-color="#F56273" stop-opacity=".75"/><stop offset="1" stop-color="#4158D9"/></linearGradient><linearGradient id="c" x1="323.117" y1="-18" x2="323.117" y2="190.28" gradientUnits="userSpaceOnUse"><stop stop-color="#4158D9"/><stop offset="1" stop-color="#F56273" stop-opacity=".75"/></linearGradient><linearGradient id="d" x1="414.5" y1="252" x2="550" y2="361.635" gradientUnits="userSpaceOnUse"><stop stop-color="#F56273" stop-opacity=".75"/><stop offset=".429" stop-color="#F56273" stop-opacity=".5"/></linearGradient><linearGradient id="e" x1="308.715" y1="839.271" x2="318.022" y2="468.913" gradientUnits="userSpaceOnUse"><stop stop-color="#4158D9"/><stop offset="1" stop-color="#F56273" stop-opacity=".75"/></linearGradient></defs></svg>